HIERARCHY
ROOT Hips
{
	OFFSET 0.000000 0.000000 0.000000
	CHANNELS 6 Xposition Yposition Zposition Zrotation Yrotation Xrotation 
	JOINT LHipJoint
	{
		OFFSET 0.000000 0.000000 0.000000
		CHANNELS 3 Zrotation Yrotation Xrotation
		JOINT LeftUpLeg
		{
			OFFSET 1.363060 -1.794630 0.839290
			CHANNELS 3 Zrotation Yrotation Xrotation
			JOINT LeftLeg
			{
				OFFSET 2.448110 -6.726130 0.000000
				CHANNELS 3 Zrotation Yrotation Xrotation
				JOINT LeftFoot
				{
					OFFSET 2.562200 -7.039590 0.000000
					CHANNELS 3 Zrotation Yrotation Xrotation
					JOINT LeftToeBase
					{
						OFFSET 0.157640 -0.433110 2.322550
						CHANNELS 3 Zrotation Yrotation Xrotation
						End Site
						{
							OFFSET 0.000000 0.000000 0.000000
						}
					}
				}
			}
		}
	}
	JOINT RHipJoint
	{
		OFFSET 0.000000 0.000000 0.000000
		CHANNELS 3 Zrotation Yrotation Xrotation
		JOINT RightUpLeg
		{
			OFFSET -1.305520 -1.794630 0.839290
			CHANNELS 3 Zrotation Yrotation Xrotation
			JOINT RightLeg
			{
				OFFSET -2.542530 -6.985550 0.000000
				CHANNELS 3 Zrotation Yrotation Xrotation
				JOINT RightFoot
				{
					OFFSET -2.568260 -7.056230 0.000000
					CHANNELS 3 Zrotation Yrotation Xrotation
					JOINT RightToeBase
					{
						OFFSET -0.164730 -0.452590 2.363150
						CHANNELS 3 Zrotation Yrotation Xrotation
						End Site
						{
							OFFSET 0.000000 0.000000 0.000000
						}
					}
				}
			}
		}
	}
}
MOTION
Frames: 30
Frame Time: 0.008333
1.664388 17.749842 -0.145328 9.228014 76.741386 9.295469 -10.884596 1.580076 1.980949 -9.322724 11.259675 -18.816837 -2.189774 -0.550777 4.805715 0.783467 7.204916 5.351850 1.811800 0.000000 -36.567700 9.832323 -4.175139 -1.226742 4.554849 -14.471255 5.652788 -0.192690 -2.506217 28.592329 -2.211229 -13.110582 16.803132 -5.409800 0.000000 -58.616300
1.885316 17.752994 -0.132686 9.140291 76.471856 8.872600 -10.933567 1.643727 1.980005 -9.146914 11.078035 -18.142517 -2.151385 -0.488777 4.687769 0.711532 6.824692 6.441067 1.845600 0.000000 -37.437600 9.923602 -4.059699 -1.523959 3.922834 -15.539042 5.291098 -0.331578 -2.568526 30.501174 -2.597363 -15.651658 15.666393 -6.250500 -0.000000 -54.462200
2.105065 17.744606 -0.120206 8.999473 76.223983 8.446988 -10.968933 1.693875 1.989641 -8.940773 10.751715 -17.519648 -2.091968 -0.427245 4.830890 0.691212 6.740690 7.102093 1.890501 -0.000000 -37.916100 10.004679 -3.934588 -1.819200 3.331157 -16.528038 4.821553 -0.430526 -2.638013 32.506803 -2.947108 -17.881060 13.852777 -6.724700 -0.000000 -49.982000
2.323821 17.724754 -0.107904 8.809126 75.974745 8.029156 -10.990348 1.730343 2.004313 -8.721706 10.317977 -16.965507 -2.017198 -0.368038 5.225085 0.714043 6.919295 7.332365 1.950400 0.000000 -38.053800 10.077498 -3.807925 -2.099105 2.786329 -17.397896 4.226022 -0.492567 -2.718869 34.595893 -3.241593 -19.650774 11.496933 -6.749300 -0.000000 -45.516500
2.541807 17.693668 -0.095475 8.628634 75.708697 7.687524 -10.994731 1.753466 2.026903 -8.515378 9.766278 -16.475004 -1.931082 -0.314649 5.824031 0.777794 7.364551 7.166573 2.032300 -0.000000 -37.962400 10.148370 -3.684598 -2.352253 2.281157 -18.120994 3.477807 -0.521873 -2.812996 36.763894 -3.466540 -20.874561 8.747453 -6.319899 -0.000000 -41.317800
2.759203 17.651446 -0.082900 8.426798 75.409083 7.397813 -10.988426 1.764042 2.037481 -8.343768 9.257740 -16.155086 -1.847916 -0.261087 6.735187 0.862533 7.890973 6.576597 2.075401 0.000000 -37.619401 10.215427 -3.571420 -2.557273 1.849538 -18.661856 2.546456 -0.523622 -2.917687 39.006251 -3.615563 -21.545848 5.751796 -5.512000 0.000000 -37.546400
2.975463 17.598220 -0.068767 8.419837 75.076284 7.363760 -10.961349 1.763997 2.041542 -8.261952 8.715885 -15.930388 -1.770283 -0.211733 7.851305 0.974526 8.564137 5.657644 2.097000 0.000000 -37.221900 10.295936 -3.462667 -2.721147 1.414025 -19.039248 1.434063 -0.502420 -3.034768 41.319816 -3.681787 -21.656916 2.634314 -4.428900 0.000000 -34.263899
3.190548 17.534039 -0.052973 8.544113 74.704123 7.522846 -10.923463 1.755430 2.013739 -8.280284 8.340134 -15.931540 -1.713780 -0.156084 9.325496 1.089003 9.152315 4.373889 2.020800 0.000001 -36.681900 10.384391 -3.362004 -2.826148 1.015481 -19.231642 0.125840 -0.464203 -3.159228 43.691218 -3.671489 -21.289364 -0.487276 -3.217300 -0.000000 -31.509400
3.403930 17.459020 -0.034731 8.866119 74.298682 7.929576 -10.874219 1.741642 1.946842 -8.420591 8.159457 -16.160298 -1.683987 -0.089874 11.159887 1.199224 9.610075 2.776539 1.838100 0.000000 -36.080400 10.485964 -3.265099 -2.875160 0.627353 -19.252728 -1.364405 -0.415151 -3.289871 46.103196 -3.593213 -20.522422 -3.516992 -2.006500 0.000000 -29.289100
3.615142 17.373406 -0.013702 9.359445 73.868554 8.548807 -10.817782 1.726299 1.832411 -8.678078 8.226899 -16.645075 -1.685179 -0.005674 13.392404 1.294955 9.866798 0.895231 1.542100 0.000001 -35.420600 10.598939 -3.169482 -2.869666 0.255482 -19.114072 -3.019963 -0.362635 -3.424366 48.535657 -3.462955 -19.467863 -6.376616 -0.901700 -0.000000 -27.590099
3.823661 17.277563 0.010162 9.985827 73.427219 9.332331 -10.757252 1.712782 1.668783 -9.035804 8.540098 -17.379262 -1.715916 0.102794 16.020761 1.372283 9.912175 -1.221184 1.152400 -0.000001 -34.722000 10.721310 -3.071371 -2.818037 -0.097747 -18.838543 -4.815596 -0.314404 -3.561497 50.969370 -3.300721 -18.248392 -9.012946 0.034700 -0.000000 -26.357100
4.028980 17.172174 0.036961 10.717902 72.990619 10.242316 -10.693782 1.704469 1.462606 -9.473967 9.044204 -18.322439 -1.769728 0.239164 18.996141 1.434093 9.790826 -3.506966 0.705800 -0.000000 -34.028500 10.851743 -2.965386 -2.733447 -0.438102 -18.462025 -6.723142 -0.277940 -3.700725 53.388510 -3.128112 -16.988222 -11.402077 0.784100 -0.000000 -25.473600
4.230858 17.058367 0.066150 11.478894 72.574382 11.198626 -10.631729 1.702048 1.223042 -9.953789 9.679594 -19.434845 -1.836996 0.405047 22.263059 1.484607 9.550700 -5.907333 0.234900 0.000000 -33.317500 10.984807 -2.848553 -2.628556 -0.748411 -18.018070 -8.720087 -0.259078 -3.841390 55.779531 -2.967736 -15.813840 -13.547216 1.364099 0.000000 -24.759900
4.428960 16.937706 0.097335 12.232298 72.188994 12.155834 -10.573059 1.706049 0.962576 -10.446020 10.362763 -20.641057 -1.906491 0.597756 25.718116 1.532205 9.269401 -8.354245 -0.231200 -0.000000 -32.612899 11.117443 -2.715387 -2.518918 -1.028696 -17.545971 -10.778686 -0.262058 -3.983207 58.129727 -2.838607 -14.831246 -15.472493 1.815500 0.000000 -24.013700
4.623034 16.812409 0.130402 12.985313 71.844000 13.109519 -10.517205 1.716256 0.692407 -10.935993 11.016064 -21.849125 -1.968343 0.809984 29.229625 1.584966 9.021055 -10.774713 -0.675601 0.000000 -31.999500 11.249500 -2.560559 -2.419979 -1.295051 -17.089799 -12.870143 -0.288012 -4.127004 60.422124 -2.754068 -14.115862 -17.211561 2.187600 0.000001 -23.060100
4.813091 16.685064 0.165595 13.769047 71.545916 14.080259 -10.461724 1.732396 0.421482 -11.422002 11.586813 -22.974223 -2.016259 1.031410 32.667806 1.648376 8.855967 -13.109463 -1.095400 0.000000 -31.555400 11.382254 -2.380384 -2.342724 -1.568205 -16.691599 -14.972302 -0.335384 -4.273939 62.635155 -2.721408 -13.709553 -18.795840 2.526100 -0.000000 -21.812800
4.998697 16.558616 0.202378 14.553022 71.285125 15.021545 -10.408792 1.752818 0.149443 -11.880527 12.071005 -23.939831 -2.047959 1.252557 35.923609 1.723569 8.791457 -15.320972 -1.496100 -0.000000 -31.338900 11.512155 -2.173083 -2.296520 -1.843573 -16.369369 -17.052346 -0.400859 -4.423746 64.742258 -2.743582 -13.626104 -20.258683 2.870799 0.000000 -20.164200
5.180408 16.436150 0.241739 15.401544 71.063925 15.993666 -10.351787 1.778182 -0.116848 -12.330374 12.453097 -24.689942 -2.064882 1.460873 38.890447 1.811728 8.839362 -17.375554 -1.884900 0.000000 -31.394400 11.642490 -1.939094 -2.282219 -2.144499 -16.155749 -19.103348 -0.478545 -4.577448 66.712367 -2.815600 -13.834614 -21.613205 3.243300 -0.000000 -18.204601
5.358518 16.320687 0.283922 16.311852 70.871616 16.987252 -10.288335 1.808193 -0.377357 -12.767983 12.750189 -25.182172 -2.070945 1.647082 41.491801 1.911230 8.990084 -19.257712 -2.268200 -0.000000 -31.719400 11.771692 -1.680711 -2.299447 -2.467516 -16.060285 -21.109606 -0.561848 -4.734370 68.511157 -2.929037 -14.281792 -22.867723 3.652200 -0.000000 -16.024900
5.533289 16.214908 0.328841 17.250125 70.690464 17.963100 -10.218805 1.843361 -0.632000 -13.179842 12.992231 -25.390806 -2.071569 1.804761 43.674826 2.019260 9.225344 -20.961890 -2.649200 0.000000 -32.274400 11.895006 -1.402626 -2.343630 -2.791781 -16.075796 -23.058842 -0.643529 -4.891714 70.108067 -3.072830 -14.896319 -24.034301 4.096400 0.000000 -13.636600
5.705676 16.121220 0.377290 18.226338 70.513090 18.933589 -10.138395 1.884768 -0.878018 -13.573790 13.195016 -25.304251 -2.072020 1.928172 45.399433 2.133135 9.525830 -22.480360 -3.026599 -0.000000 -32.989200 12.012185 -1.110304 -2.408117 -3.111976 -16.203409 -24.946850 -0.716239 -5.047655 71.469420 -3.231285 -15.587282 -25.097529 4.554500 -0.000000 -11.292000
5.876623 16.041494 0.429491 19.200306 70.327399 19.863156 -10.047465 1.933293 -1.113071 -13.938371 13.382636 -24.926506 -2.076732 2.015393 46.650550 2.248885 9.866600 -23.809142 -3.394901 0.000000 -33.777300 12.118488 -0.811021 -2.485203 -3.399520 -16.428237 -26.768294 -0.772697 -5.197790 72.568180 -3.389502 -16.266391 -26.052814 5.001600 -0.000000 -9.101900
6.046923 15.976877 0.485486 20.139355 70.116571 20.718168 -9.947104 1.990892 -1.334326 -14.266072 13.576603 -24.261768 -2.088947 2.066289 47.423787 2.362889 10.227204 -24.944244 -3.746400 -0.000000 -34.551100 12.209892 -0.512443 -2.565632 -3.631903 -16.726965 -28.516424 -0.807221 -5.337082 73.386303 -3.533092 -16.851218 -26.893274 5.407800 0.000000 -7.165800
6.218066 15.928268 0.545558 20.994655 69.879812 21.463716 -9.840713 2.057519 -1.536250 -14.540959 13.786693 -23.339401 -2.109608 2.082799 47.737020 2.470032 10.581735 -25.875269 -4.067601 0.000000 -35.246300 12.280706 -0.223534 -2.641456 -3.771973 -17.079978 -30.190959 -0.814395 -5.459315 73.905436 -3.650553 -17.277275 -27.604276 5.742200 -0.000000 -5.605900
6.391257 15.895830 0.609691 21.723663 69.611814 22.065153 -9.733502 2.133556 -1.713619 -14.748167 14.019714 -22.186527 -2.138280 2.068045 47.616520 2.565732 10.911087 -26.591907 -4.345400 0.000000 -35.825800 12.325604 0.047178 -2.704788 -3.788994 -17.460136 -31.788815 -0.791137 -5.558092 74.118018 -3.734168 -17.502555 -28.175268 5.980600 -0.000000 -4.463699
6.567815 15.879412 0.677861 22.286123 69.313441 22.494719 -9.632250 2.218523 -1.860226 -14.871072 14.273800 -20.839337 -2.172906 2.025908 47.100399 2.645392 11.199411 -27.081318 -4.566200 0.000001 -36.289399 12.339265 0.291418 -2.748701 -3.652159 -17.839691 -33.308879 -0.736259 -5.627127 74.021720 -3.780664 -17.511291 -28.594078 6.107300 0.000000 -3.755100
6.748952 15.878483 0.750050 22.650713 68.989649 22.733772 -9.544565 2.311558 -1.970024 -14.893959 14.540567 -19.337353 -2.210311 1.960692 46.235161 2.704842 11.435633 -27.330384 -4.717300 0.000000 -36.671500 12.317123 0.502048 -2.767676 -3.336219 -18.191155 -34.748769 -0.650667 -5.660860 73.618954 -3.791306 -17.314156 -28.850001 6.118600 -0.000000 -3.468200
6.935718 15.892279 0.826250 22.796392 68.647558 22.773897 -9.477967 2.411631 -2.037704 -14.803573 14.806079 -17.721946 -2.246537 1.876866 45.072640 2.740720 11.614751 -27.326098 -4.789400 -0.000000 -37.036400 12.255920 0.673786 -2.757936 -2.824163 -18.489171 -36.104179 -0.537172 -5.655036 72.915930 -3.771455 -16.944889 -28.936446 6.022700 -0.000000 -3.571000
7.128841 15.919887 0.906434 22.715682 68.296182 22.616837 -9.439034 2.518178 -2.059351 -14.590285 15.053219 -16.030465 -2.277167 1.779045 43.666603 2.750593 11.737283 -27.055695 -4.776000 0.000000 -37.471800 12.154176 0.803460 -2.717799 -2.109694 -18.712770 -37.365224 -0.400001 -5.606988 71.920809 -3.729568 -16.453861 -28.853566 5.838500 0.000000 -4.019600
7.328707 15.960388 0.990692 22.411801 67.943949 22.271261 -9.432765 2.631259 -2.033079 -14.248865 15.264716 -14.295598 -2.297716 1.672056 42.069387 2.733095 11.808479 -26.506430 -4.673600 0.000000 -38.080700 12.012195 0.890548 -2.647654 -1.198300 -18.846783 -38.516992 -0.244043 -5.515677 70.641643 -3.676020 -15.899943 -28.610792 5.591800 -0.000001 -4.765700
